<svg xmlns="http://www.w3.org/2000/svg" width="66" height="66"><path fill="#1BCEB8" d="M20.896 62.5a1.5 1.5 0 0 1-3 0v-59a1.5 1.5 0 1 1 3 0v59z"/><path fill="#0DBFBA" d="M19.217 2c.867 0 1.679.701 1.679 1.568V62.43c0 .867-.757 1.57-1.624 1.57"/><path fill="#1BCEB8" d="M27.896 62.5a1.5 1.5 0 0 1-3 0v-59a1.5 1.5 0 1 1 3 0v59z"/><path fill="#0DBFBA" d="M26.165 2c.866 0 1.73.701 1.73 1.568V62.43c0 .867-.784 1.57-1.65 1.57"/><path fill="#1BCEB8" d="M40.896 62.5a1.5 1.5 0 0 1-3 0v-59a1.5 1.5 0 1 1 3 0v59zM47.896 62.5a1.5 1.5 0 0 1-3 0v-59a1.5 1.5 0 1 1 3 0v59z"/><path fill="#0DBFBA" d="M46.504 2c.866 0 1.392.701 1.392 1.568V62.43c0 .867-.614 1.57-1.48 1.57M39.504 2c.866 0 1.392.701 1.392 1.568V62.43c0 .867-.614 1.57-1.48 1.57"/><path fill="#1BCEB8" d="M34.896 62.5a1.5 1.5 0 0 1-3 0v-59a1.5 1.5 0 1 1 3 0v59z"/><path fill="#0DBFBA" d="M33.504 2c.866 0 1.392.701 1.392 1.568V62.43c0 .867-.614 1.57-1.48 1.57"/><g><path fill="#1BCEB8" d="M3.465 21c-.866 0-1.569-.635-1.569-1.5 0-.867.703-1.5 1.569-1.5h58.861c.867 0 1.569.633 1.569 1.5 0 .865-.702 1.5-1.569 1.5H3.465z"/><path fill="#0DBFBA" d="M63.896 19.322c0 .865-.702 1.678-1.569 1.678H3.465c-.866 0-1.569-.758-1.569-1.623"/><path fill="#1BCEB8" d="M63.896 26.5a1.5 1.5 0 0 1-1.5 1.5h-59a1.5 1.5 0 0 1 0-3h59a1.5 1.5 0 0 1 1.5 1.5z"/><path fill="#0DBFBA" d="M63.896 26.27c0 .867-.702 1.73-1.569 1.73H3.465c-.866 0-1.569-.783-1.569-1.65"/><path fill="#1BCEB8" d="M64.104 33.211a1.5 1.5 0 0 1-1.5 1.5h-59a1.5 1.5 0 1 1 0-3h59a1.5 1.5 0 0 1 1.5 1.5z"/><path fill="#0DBFBA" d="M64.104 32.98c0 .867-.702 1.73-1.569 1.73H3.674c-.866 0-1.569-.783-1.569-1.65"/><g><path fill="#1BCEB8" d="M63.896 39.5a1.5 1.5 0 0 1-1.5 1.5h-59a1.5 1.5 0 0 1 0-3h59a1.5 1.5 0 0 1 1.5 1.5z"/><path fill="#0DBFBA" d="M63.896 39.662c0 .867-.702 1.338-1.569 1.338H3.465c-.866 0-1.569-.586-1.569-1.453"/></g><g><path fill="#1BCEB8" d="M3.465 48c-.866 0-1.569-.633-1.569-1.5 0-.865.703-1.5 1.569-1.5h58.861c.867 0 1.569.635 1.569 1.5 0 .867-.702 1.5-1.569 1.5H3.465z"/><path fill="#0DBFBA" d="M63.896 46.607c0 .867-.702 1.393-1.569 1.393H3.465c-.866 0-1.569-.613-1.569-1.48"/></g></g><path fill="#363F3E" d="M52.896 49.708A3.292 3.292 0 0 1 49.603 53H17.188a3.293 3.293 0 0 1-3.293-3.292V17.292A3.293 3.293 0 0 1 17.188 14h32.414a3.292 3.292 0 0 1 3.293 3.292v32.416z"/><path d="M13.896 17.292A3.293 3.293 0 0 1 17.189 14h32.414a3.294 3.294 0 0 1 3.293 3.292v32.416A3.293 3.293 0 0 1 49.603 53"/><path fill="#495150" d="M45.896 43.915A2.086 2.086 0 0 1 43.811 46H22.98a2.086 2.086 0 0 1-2.085-2.085v-20.83c0-1.151.934-2.085 2.085-2.085h20.83c1.151 0 2.085.934 2.085 2.085v20.83z"/><path fill="#393F3E" d="M20.896 23.085c0-1.151.933-2.085 2.085-2.085h20.83c1.151 0 2.085.934 2.085 2.085v20.83A2.086 2.086 0 0 1 43.811 46"/><g><path fill="#1BCEB8" d="M30.46 32.055c.961-.652 1.492-1.613 1.492-2.749 0-1.659-1.206-3.333-3.901-3.333-1.404 0-2.725.51-3.41 1.013a.485.485 0 0 0-.17.555l.423 1.177a.487.487 0 0 0 .738.231c.453-.324 1.276-.7 2.107-.7 1.039 0 1.61.418 1.61 1.267 0 1.127-1.304 1.486-2.18 1.486h-.9c-.268 0-.373.316-.373.584v1.212c0 .269.105.204.373.204h.9c.432 0 2.582.232 2.603 2.055.004.221-.034.854-.474 1.299-.385.394-.971.628-1.743.628-.974 0-1.96-.388-2.385-.659a.468.468 0 0 0-.418-.041.487.487 0 0 0-.3.301l-.441 1.251a.489.489 0 0 0 .191.568c.624.408 1.881.887 3.371.887 3.324 0 4.839-2.106 4.839-4.066 0-1.402-.738-2.558-1.952-3.17z"/><path fill="#0DBFBA" d="M31.952 29.306c0-1.659-1.206-3.333-3.901-3.333-1.346 0-2.608.467-3.315.95l1.631 1.63c.408-.172.884-.306 1.372-.306 1.039 0 1.61.468 1.61 1.316 0 .569-.334.954-.776 1.198l3.769 3.769c-.203-1.083-.875-1.97-1.881-2.476.96-.652 1.491-1.613 1.491-2.748zM41.117 37h-4.166l.093-.197c2.416-2.328 4.264-4.358 4.264-6.815 0-1.971-1.28-3.987-4.141-3.987-1.368 0-2.68.457-3.692 1.314a.474.474 0 0 0-.13.563l.515 1.136a.483.483 0 0 0 .752.169c.402-.335 1.227-.899 2.226-.899 1.251 0 1.886.623 1.886 1.844-.017 1.575-1.279 3.029-4.3 5.905L33.1 37.264c-.093.09-.203.216-.203.348v.99c0 .27.329.398.597.398h7.625c.269 0 .778-.129.778-.398v-1.34c-.001-.268-.511-.262-.78-.262z"/></g></svg>