<svg xmlns="http://www.w3.org/2000/svg" width="66" height="66"><path fill="#1D2226" d="M45.289 18.267a1.55 1.55 0 0 0 1.549 1.549h4.072c.855 0 1.549-.693 1.549-1.549l2.449-6.456a1.55 1.55 0 0 0-1.551-1.549h-6.52a1.55 1.55 0 0 0-1.549 1.549v6.456z"/><path fill="#2D333A" d="M34.826 10.7c0 .728.59 1.316 1.316 1.316h18.715a1.316 1.316 0 0 0 0-2.631H36.143c-.727 0-1.317.589-1.317 1.315z"/><path fill="#1D2226" d="M45.289 36.666c0 .856.695 1.55 1.549 1.55h4.072a1.55 1.55 0 0 0 1.549-1.55l2.449-6.455a1.55 1.55 0 0 0-1.551-1.549h-6.52a1.55 1.55 0 0 0-1.549 1.549v6.455z"/><path fill="#2D333A" d="M34.826 29.101c0 .727.59 1.316 1.316 1.316h18.715a1.316 1.316 0 0 0 0-2.631H36.143a1.315 1.315 0 0 0-1.317 1.315z"/><path fill="#1D2226" d="M45.289 55.066a1.55 1.55 0 0 0 1.549 1.549h4.072c.855 0 1.549-.693 1.549-1.549l2.449-6.455c0-.855-.695-1.55-1.551-1.55h-6.52a1.55 1.55 0 0 0-1.549 1.55v6.455z"/><path fill="#2D333A" d="M34.826 47.501c0 .727.59 1.315 1.316 1.315h18.715a1.316 1.316 0 0 0 0-2.631H36.143c-.727 0-1.317.589-1.317 1.316z"/><path fill="#393F47" d="M20.711 18.267a1.55 1.55 0 0 1-1.549 1.549H15.09a1.549 1.549 0 0 1-1.549-1.549l-2.449-6.456a1.55 1.55 0 0 1 1.551-1.549h6.52a1.55 1.55 0 0 1 1.549 1.549v6.456z"/><path fill="#2D333A" d="M31.174 10.7c0 .728-.59 1.316-1.316 1.316H11.143a1.316 1.316 0 0 1 0-2.631h18.715c.726 0 1.316.589 1.316 1.315z"/><path fill="#393F47" d="M20.711 36.666a1.55 1.55 0 0 1-1.549 1.55H15.09a1.55 1.55 0 0 1-1.549-1.55l-2.449-6.455a1.55 1.55 0 0 1 1.551-1.549h6.52a1.55 1.55 0 0 1 1.549 1.549v6.455z"/><path fill="#2D333A" d="M31.174 29.101c0 .727-.59 1.316-1.316 1.316H11.143a1.316 1.316 0 0 1 0-2.631h18.715a1.315 1.315 0 0 1 1.316 1.315z"/><g><path fill="#393F47" d="M20.711 55.066a1.55 1.55 0 0 1-1.549 1.549H15.09a1.549 1.549 0 0 1-1.549-1.549l-2.449-6.455c0-.855.695-1.55 1.551-1.55h6.52a1.55 1.55 0 0 1 1.549 1.55v6.455z"/><path fill="#2D333A" d="M31.174 47.501c0 .727-.59 1.315-1.316 1.315H11.143a1.316 1.316 0 0 1 0-2.631h18.715c.726 0 1.316.589 1.316 1.316z"/></g><path fill="#444951" d="M48.629 61.031c0 2.191.222 3.969-1.97 3.969H19.341c-2.191 0-1.97-1.777-1.97-3.969V4.969A3.97 3.97 0 0 1 21.341 1h23.318a3.97 3.97 0 0 1 3.97 3.969v56.062z"/><path fill="#393F47" d="M17.371 4.969A3.97 3.97 0 0 1 21.341 1h23.318a3.97 3.97 0 0 1 3.97 3.969v56.062c0 2.191.222 3.969-1.97 3.969"/><g><path fill="#2D333A" d="M39.338 14.25c0 3.452-2.799 10.25-6.25 10.25-3.453 0-6.25-6.798-6.25-10.25S29.635 8 33.088 8a6.25 6.25 0 0 1 6.25 6.25z"/><circle cx="33.088" cy="14.25" r="6.25" fill="#EF2E65"/><path fill="#CC0E57" d="M28.668 9.831a6.25 6.25 0 0 1 8.838 8.839"/></g><g><path fill="#2D333A" d="M39.338 31.417c0 3.452-2.799 10.25-6.25 10.25-3.453 0-6.25-6.798-6.25-10.25s2.797-6.25 6.25-6.25a6.25 6.25 0 0 1 6.25 6.25z"/><circle cx="33.088" cy="31.417" r="6.25" fill="#EDBF2F"/><path fill="#DBA81B" d="M28.668 26.997a6.25 6.25 0 0 1 8.838 8.839"/></g><g><path fill="#2D333A" d="M39.338 48.583c0 3.452-2.799 10.25-6.25 10.25-3.453 0-6.25-6.798-6.25-10.25s2.797-6.25 6.25-6.25a6.25 6.25 0 0 1 6.25 6.25z"/><circle cx="33.088" cy="48.583" r="6.25" fill="#32D85D"/><path fill="#19BF55" d="M28.668 44.164a6.249 6.249 0 0 1 8.838 0 6.249 6.249 0 0 1 0 8.838"/></g><path fill="#4F545B" d="M19.341 65c-2.191 0-1.97-1.777-1.97-3.969V4.969A3.97 3.97 0 0 1 21.341 1"/></svg>