<svg xmlns="http://www.w3.org/2000/svg" width="66" height="66"><path fill="#E57A1A" d="M49.321 19.938c0 6.294-7.309 13.396-16.32 13.396-9.014 0-16.322-7.102-16.322-13.396S23.987 6.541 33.001 6.541c9.012 0 16.32 7.103 16.32 13.397z"/><path fill="#C4570C" d="M49.321 19.938c0 6.294-7.309 13.396-16.32 13.396-9.014 0-16.322-7.102-16.322-13.396"/><path fill="#E57A1A" d="M14.86 19.699c-.004-.013-.012-.023-.016-.035.438-2.093-1.334-4.682-4.295-6.067-3.275-1.531-6.754-1.011-7.771 1.166-.693 1.479-.068 3.343 1.434 4.867-1.488 1.354-2.193 3.062-1.66 4.532.818 2.259 4.236 3.092 7.635 1.859 3.4-1.232 5.492-4.06 4.673-6.322z"/><path fill="#C4570C" d="M4.212 19.63c-1.488 1.354-2.193 3.062-1.66 4.532.818 2.259 4.236 3.092 7.635 1.859 3.4-1.232 5.492-4.061 4.674-6.322-.004-.013-.012-.023-.016-.035"/><path fill="#E57A1A" d="M51.14 19.611c.004.014.01.024.016.037-.439 2.094 1.334 4.682 4.293 6.065 3.275 1.533 6.754 1.012 7.773-1.164.693-1.479.068-3.343-1.434-4.867 1.49-1.354 2.193-3.062 1.66-4.533-.818-2.258-4.238-3.093-7.635-1.859-3.402 1.232-5.494 4.062-4.673 6.321z"/><path fill="#C4570C" d="M51.14 19.611c.004.014.01.024.016.037-.439 2.094 1.334 4.682 4.293 6.065 3.275 1.533 6.754 1.012 7.773-1.164.693-1.479.068-3.343-1.434-4.867"/><g><path fill="#06718E" d="M18.376 15.076l-.391.391c-.84 1.373-1.307 2.883-1.307 4.471s.467 3.099 1.307 4.472l.391.39 2.438-2.438-2.424-2.424 2.424-2.424-2.438-2.438z"/><path fill="#673BAD" d="M25.688 17.514l-2.437-2.438-2.438 2.438 2.424 2.424-2.424 2.423 2.438 2.438 2.437-2.438-2.423-2.423z"/><path fill="#06718E" d="M30.563 17.514l-2.437-2.438-2.438 2.438 2.424 2.424-2.424 2.423 2.438 2.438 2.437-2.438-2.423-2.423z"/><path fill="#673BAD" d="M35.438 17.514l-2.437-2.438-2.438 2.438 2.424 2.424-2.424 2.423 2.438 2.438 2.437-2.438-2.423-2.423z"/><path fill="#06718E" d="M40.313 17.514l-2.437-2.438-2.438 2.438 2.424 2.424-2.424 2.423 2.438 2.438 2.437-2.438-2.423-2.423z"/><path fill="#673BAD" d="M45.188 17.514l-2.437-2.438-2.438 2.438 2.424 2.424-2.424 2.423 2.438 2.438 2.437-2.438-2.423-2.423z"/><path fill="#06718E" d="M48.009 15.46l-.383-.384-2.438 2.438 2.424 2.424-2.424 2.424 2.438 2.438.383-.384c.844-1.375 1.312-2.888 1.312-4.478s-.468-3.103-1.312-4.478z"/></g><g><path fill="#06718E" d="M18.376 15.076l-.391.391c-.84 1.373-1.307 2.883-1.307 4.471s.467 3.099 1.307 4.472l.391.39 2.438-2.438-2.424-2.424 2.424-2.424-2.438-2.438z"/><path fill="#673BAD" d="M25.688 17.514l-2.437-2.438-2.438 2.438 2.424 2.424-2.424 2.423 2.438 2.438 2.437-2.438-2.423-2.423z"/><path fill="#06718E" d="M30.563 17.514l-2.437-2.438-2.438 2.438 2.424 2.424-2.424 2.423 2.438 2.438 2.437-2.438-2.423-2.423z"/><path fill="#673BAD" d="M35.438 17.514l-2.437-2.438-2.438 2.438 2.424 2.424-2.424 2.423 2.438 2.438 2.437-2.438-2.423-2.423z"/><path fill="#06718E" d="M40.313 17.514l-2.437-2.438-2.438 2.438 2.424 2.424-2.424 2.423 2.438 2.438 2.437-2.438-2.423-2.423z"/><path fill="#673BAD" d="M45.188 17.514l-2.437-2.438-2.438 2.438 2.424 2.424-2.424 2.423 2.438 2.438 2.437-2.438-2.423-2.423z"/><path fill="#06718E" d="M48.009 15.46l-.383-.384-2.438 2.438 2.424 2.424-2.424 2.424 2.438 2.438.383-.384c.844-1.375 1.312-2.888 1.312-4.478s-.468-3.103-1.312-4.478z"/></g><ellipse cx="33.001" cy="11.291" fill="#F78C34" rx="7.312" ry="3.5"/><g><path fill="#13C2EA" d="M10.075 43.59c-2.256-2.297-4.84-3.34-5.764-2.322-.416.457-.408 1.262-.086 2.207-.99.029-1.727.326-1.977.922-.275.656.078 1.531.869 2.41-1.199.469-1.961 1.158-1.961 1.928s.762 1.459 1.961 1.928c-.791.877-1.145 1.752-.869 2.408.25.596.986.893 1.977.922-.322.947-.33 1.75.086 2.209.924 1.016 3.508-.025 5.764-2.322 1.783-1.816 2.814-3.859 2.719-5.145.096-1.286-.936-3.331-2.719-5.145z"/><path fill="#059ECE" d="M1.157 48.734c0 .77.762 1.459 1.961 1.928-.791.877-1.145 1.752-.869 2.408.25.596.986.893 1.977.922-.322.947-.33 1.75.086 2.209.924 1.016 3.508-.025 5.764-2.322 1.783-1.816 2.814-3.859 2.719-5.145"/><path fill="#86DBF2" d="M10.53 45.287c-.174.273-1.467-.326-2.885-1.336-1.422-1.01-2.434-2.051-2.26-2.322.176-.273 1.467.324 2.887 1.334 1.422 1.012 2.432 2.051 2.258 2.324zM8.062 46.363c-.07.217-1.146.025-2.4-.428-1.256-.453-2.217-.994-2.146-1.211.07-.219 1.143-.025 2.4.426 1.251.454 2.214.996 2.146 1.213z"/><path fill="#13C2EA" d="M55.923 43.59c2.258-2.297 4.838-3.34 5.762-2.322.418.457.41 1.262.09 2.207.988.029 1.725.326 1.975.922.275.656-.078 1.531-.867 2.41 1.199.469 1.961 1.158 1.961 1.928s-.762 1.459-1.961 1.928c.789.877 1.143 1.752.867 2.408-.25.596-.986.893-1.975.922.32.947.328 1.75-.09 2.209-.924 1.016-3.504-.025-5.762-2.322-1.785-1.816-2.814-3.859-2.721-5.145-.094-1.286.936-3.331 2.721-5.145z"/><path fill="#059ECE" d="M64.843 48.734c0 .77-.762 1.459-1.961 1.928.789.877 1.143 1.752.867 2.408-.25.596-.986.893-1.975.922.32.947.328 1.75-.09 2.209-.924 1.016-3.504-.025-5.762-2.322-1.785-1.816-2.814-3.859-2.721-5.145"/><path fill="#86DBF2" d="M55.468 45.287c.174.273 1.465-.326 2.887-1.336 1.418-1.01 2.43-2.051 2.256-2.322-.174-.273-1.467.324-2.887 1.334-1.418 1.012-2.43 2.051-2.256 2.324zM57.938 46.363c.07.217 1.143.025 2.398-.428 1.254-.453 2.217-.994 2.146-1.211-.07-.219-1.143-.025-2.4.426-1.251.454-2.214.996-2.144 1.213z"/><g><path fill="#CC3BA0" d="M15.571 50.605c0 1.459-1.117 2.641-2.496 2.641-1.377 0-2.494-1.182-2.494-2.641v-3.744c0-1.457 1.117-2.639 2.494-2.639 1.379 0 2.496 1.182 2.496 2.639v3.744z"/><path fill="#A0207F" d="M15.571 46.861v3.744c0 1.459-1.117 2.641-2.496 2.641-1.377 0-2.494-1.182-2.494-2.641v-3.744"/><g><path fill="#CC3BA0" d="M55.417 50.605c0 1.459-1.117 2.641-2.496 2.641-1.375 0-2.494-1.182-2.494-2.641v-3.744c0-1.457 1.119-2.639 2.494-2.639 1.379 0 2.496 1.182 2.496 2.639v3.744z"/><path fill="#A0207F" d="M55.417 46.861v3.744c0 1.459-1.117 2.641-2.496 2.641-1.375 0-2.494-1.182-2.494-2.641v-3.744"/></g></g><path fill="#13C2EA" d="M52.962 49.244c0 5.641-4.326 10.215-9.66 10.215H22.694c-5.334 0-9.658-4.574-9.658-10.215v-1.021c0-5.641 4.324-10.213 9.658-10.213h20.607c5.334 0 9.66 4.572 9.66 10.213v1.021z"/><path fill="#059ECE" d="M52.962 48.223v1.021c0 5.641-4.326 10.215-9.66 10.215H22.694c-5.334 0-9.658-4.574-9.658-10.215v-1.021"/><g><ellipse cx="18.512" cy="43.287" fill="#EF73C3" rx="1.288" ry="1.361"/><ellipse cx="24.307" cy="43.287" fill="#EACD6E" rx="1.288" ry="1.361"/><path fill="#EF73C3" d="M31.392 43.287c0 .752-.58 1.361-1.289 1.361-.713 0-1.289-.609-1.289-1.361s.576-1.363 1.289-1.363c.709 0 1.289.611 1.289 1.363z"/><ellipse cx="35.896" cy="43.287" fill="#EACD6E" rx="1.288" ry="1.361"/><ellipse cx="41.69" cy="43.287" fill="#EF73C3" rx="1.289" ry="1.361"/><ellipse cx="47.486" cy="43.287" fill="#EACD6E" rx="1.288" ry="1.361"/><g><ellipse cx="18.512" cy="48.734" fill="#EACD6E" rx="1.288" ry="1.361"/><ellipse cx="24.307" cy="48.734" fill="#EF73C3" rx="1.288" ry="1.361"/><path fill="#EACD6E" d="M31.392 48.734c0 .752-.58 1.361-1.289 1.361-.713 0-1.289-.609-1.289-1.361 0-.754.576-1.361 1.289-1.361.709 0 1.289.607 1.289 1.361z"/><ellipse cx="35.896" cy="48.734" fill="#EF73C3" rx="1.288" ry="1.361"/><ellipse cx="41.69" cy="48.734" fill="#EACD6E" rx="1.289" ry="1.361"/><ellipse cx="47.486" cy="48.734" fill="#EF73C3" rx="1.288" ry="1.361"/></g><g><ellipse cx="18.512" cy="54.182" fill="#EF73C3" rx="1.288" ry="1.361"/><ellipse cx="24.307" cy="54.182" fill="#EACD6E" rx="1.288" ry="1.361"/><path fill="#EF73C3" d="M31.392 54.182c0 .752-.58 1.361-1.289 1.361-.713 0-1.289-.609-1.289-1.361s.576-1.363 1.289-1.363c.709-.001 1.289.611 1.289 1.363z"/><ellipse cx="35.896" cy="54.182" fill="#EACD6E" rx="1.288" ry="1.361"/><ellipse cx="41.69" cy="54.182" fill="#EF73C3" rx="1.289" ry="1.361"/><ellipse cx="47.486" cy="54.182" fill="#EACD6E" rx="1.288" ry="1.361"/></g></g></g><path fill="#86DBF2" d="M44.438 41.604a.688.688 0 0 1-.688.688h-21.5a.688.688 0 1 1 0-1.376h21.5c.38 0 .688.309.688.688z"/></svg>