<svg xmlns="http://www.w3.org/2000/svg" width="66" height="66"><circle cx="33" cy="32.749" r="27.083" fill="#063F66"/><path fill="#022730" d="M13.85 13.599c10.575-10.576 27.725-10.576 38.302 0 10.574 10.576 10.574 27.725 0 38.301"/><path fill="#A3B5B1" d="M60.007 18.278c0-9.176-7.434-16.613-16.608-16.613-6.488 0-12.092 3.729-14.826 9.154a7.997 7.997 0 0 0-1.882-.234 7.871 7.871 0 0 0-7.874 7.873c0 .176-.003.354.008.527C13.107 19.583 10 24.573 10 30.64v.783c0 6.465 5.282 11.504 11.751 11.504h26.551C54.771 42.927 60 37.888 60 31.423V27.7c0-3.01.007-6.312.007-9.422z"/><path fill="#7F938F" d="M60.007 20.499c0-9.174-7.434-16.611-16.608-16.611-6.488 0-12.092 3.729-14.826 9.154a7.997 7.997 0 0 0-1.882-.234 7.871 7.871 0 0 0-7.874 7.871c0 .178-.003.354.008.529C13.107 21.806 10 24.573 10 30.64v.783c0 6.465 5.282 11.504 11.751 11.504h26.551C54.771 42.927 60 37.888 60 31.423V27.7c0-3.01.007-4.092.007-7.201z"/><path fill="#788785" d="M22 42.927h26.302C54.771 42.927 60 37.888 60 31.423V27.7c0-3.01-.023-5.111-.023-8.221"/><path fill="#A3B5B1" d="M36.204 20.726a5.49 5.49 0 0 0-1.553-.248 5.557 5.557 0 0 0-5.555 5.557c0 .543.102 1.057.246 1.553a7.87 7.87 0 0 1 6.862-6.862z"/><path fill="#A3B5B1" d="M45.841 15.614c-.628-.316-1.297-.58-2.028-.713a7.614 7.614 0 0 0-8.853 6.123c-.133.73-.121 1.449-.048 2.154a10.78 10.78 0 0 1 10.929-7.564z"/><circle cx="15.672" cy="29.782" r=".556" fill="#A3B5B1"/><circle cx="17.13" cy="25.546" r=".764" fill="#A3B5B1"/><circle cx="26.712" cy="17.63" r=".348" fill="#A3B5B1"/><circle cx="34.42" cy="13.396" r=".833" fill="#A3B5B1"/><circle cx="40.947" cy="6.591" r=".417" fill="#A3B5B1"/><circle cx="44.696" cy="7.841" r="1.25" fill="#A3B5B1"/><g><path fill="#FA0" d="M43.292 43.927H33.45l-5.812 9h3.914l-4.826 11.408 16.145-14.408H38.89z"/><path fill="#FFBC00" d="M43.292 43.927l-7.77 6.141-7.884 2.859h6.367l-7.279 11.408 16.145-14.408H38.89z"/><path fill="#FFF200" d="M39.036 43.927H33.45l-5.812 9h8.848l-9.76 11.408 16.145-14.408h-8.659z"/><path fill="#FFDA00" d="M39.036 43.927l-4.387.97-7.011 8.03h8.848l-9.76 11.408 16.145-14.408-9.9 1.269z"/></g><g><path fill="#FA0" d="M50.007 43.927h-4.83l-2.852 4h1.92l-2.367 5.834 7.922-6.834h-1.953z"/><path fill="#FFBC00" d="M50.007 43.927l-3.813 2.836-3.869 1.164h3.125l-3.572 5.834 7.922-6.834h-1.953z"/><path fill="#FFF200" d="M47.919 43.927h-2.742l-2.852 4h4.342l-4.789 5.834 7.922-6.834h-4.248z"/><path fill="#FFDA00" d="M47.919 43.927l-2.153.302-3.441 3.698h4.342l-4.789 5.834 7.922-6.834-4.858.576z"/></g></svg>