<svg xmlns="http://www.w3.org/2000/svg" width="66" height="66"><circle cx="33" cy="33.002" r="31.25" fill="#063F66"/><path fill="#022730" d="M10.903 10.904c12.203-12.205 31.99-12.205 44.193 0 12.204 12.203 12.204 31.99 0 44.193"/><g fill="#DCF9F6"><ellipse cx="18.537" cy="54.949" rx=".289" ry="2.693"/><ellipse cx="18.537" cy="54.95" rx="2.691" ry=".288"/></g><g fill="#DCF9F6"><ellipse cx="55.076" cy="20.623" rx=".288" ry="2.692" transform="rotate(44.863 55.077 20.623)"/><ellipse cx="55.076" cy="20.623" rx=".288" ry="2.692" transform="rotate(135.137 55.076 20.623)"/></g><g fill="#DCF9F6"><ellipse cx="47.589" cy="12.336" rx=".124" ry="1.154"/><ellipse cx="47.59" cy="12.336" rx="1.154" ry=".124"/></g><g fill="#DCF9F6"><ellipse cx="24.114" cy="14.609" rx=".135" ry="1.253" transform="rotate(-45.292 24.116 14.61)"/><ellipse cx="24.114" cy="14.609" rx=".135" ry="1.251" transform="rotate(45.292 24.115 14.61)"/></g><g fill="#DCF9F6"><ellipse cx="13.921" cy="47.45" rx=".134" ry="1.253" transform="rotate(-45.146 13.922 47.451)"/><ellipse cx="13.921" cy="47.45" rx=".134" ry="1.25" transform="rotate(45.146 13.921 47.451)"/></g><g fill="#DCF9F6"><ellipse cx="39.707" cy="11.133" rx=".068" ry=".626" transform="rotate(44.417 39.704 11.132)"/><ellipse cx="39.707" cy="11.133" rx=".068" ry=".626" transform="scale(-1) rotate(-44.417 -27.27 97.254)"/></g><g fill="#DCF9F6"><ellipse cx="28.729" cy="57.642" rx=".067" ry=".627" transform="rotate(44.708 28.729 57.639)"/><ellipse cx="28.729" cy="57.642" rx=".067" ry=".625" transform="rotate(135.292 28.729 57.643)"/></g><g><circle cx="33" cy="33" r="20" fill="#DCF9F6"/><path fill="#95BFB9" d="M33 53c-11.046 0-20-8.954-20-20 0-11.047 8.954-20 20-20"/><path fill="#CAEDE7" d="M33 53c-11.046 0-10.826-8.954-10.826-20 0-11.047-.22-20 10.826-20"/><circle cx="19.132" cy="22.355" r="1.167" fill="#78A8A0"/><circle cx="17.382" cy="26.939" r=".25" fill="#78A8A0"/><circle cx="25.465" cy="29.523" r="3.667" fill="#78A8A0"/><circle cx="27.132" cy="21.357" r="1" fill="#78A8A0"/><circle cx="33.965" cy="20.855" r=".333" fill="#C3E5E0"/><circle cx="36.632" cy="17.523" r=".333" fill="#78A8A0"/><circle cx="26.966" cy="17.689" r=".5" fill="#78A8A0"/><circle cx="30.965" cy="16.023" r=".167" fill="#78A8A0"/><circle cx="35.632" cy="27.523" r=".833" fill="#C3E5E0"/><circle cx="41.632" cy="27.023" r=".5" fill="#C3E5E0"/><circle cx="42.882" cy="21.273" r=".75" fill="#C3E5E0"/><circle cx="39.382" cy="37.439" r="2.25" fill="#C3E5E0"/><circle cx="21.299" cy="38.689" r=".667" fill="#78A8A0"/><circle cx="28.465" cy="35.689" r=".333" fill="#78A8A0"/><circle cx="31.965" cy="43.189" r="1.167" fill="#78A8A0"/><circle cx="17.382" cy="33.607" r=".75" fill="#78A8A0"/><circle cx="35.216" cy="33.107" r=".25" fill="#C3E5E0"/><circle cx="44.799" cy="33.523" r=".5" fill="#95BFB9"/><circle cx="23.632" cy="44.189" r="1.167" fill="#78A8A0"/><circle cx="26.049" cy="39.939" r=".417" fill="#78A8A0"/><circle cx="38.382" cy="44.605" r=".417" fill="#C3E5E0"/><circle cx="31.965" cy="47.855" r=".333" fill="#78A8A0"/><circle cx="27.049" cy="47.439" r=".25" fill="#78A8A0"/><circle cx="43.382" cy="42.773" r=".75" fill="#95BFB9"/><circle cx="37.299" cy="48.689" r=".5" fill="#C3E5E0"/><circle cx="32.549" cy="37.939" r=".417" fill="#78A8A0"/><circle cx="46.049" cy="39.273" r=".75" fill="#95BFB9"/><circle cx="18.632" cy="42.189" r=".667" fill="#78A8A0"/><circle cx="40.549" cy="31.939" r=".917" fill="#C3E5E0"/></g></svg>