<svg xmlns="http://www.w3.org/2000/svg" width="66" height="66"><circle cx="33.001" cy="33" r="17.762" fill="#FFCE00"/><path fill="#FF9D00" d="M33 15.238c9.809 0 17.763 7.951 17.763 17.762 0 9.81-7.954 17.762-17.763 17.762"/><path fill="#FFBC00" d="M50.763 33c0 9.81-7.954 16.403-17.763 16.403S15.239 42.81 15.239 33c0-9.811 7.952-16.406 17.761-16.406S50.763 23.189 50.763 33z"/><path fill="#FFB000" d="M33 16.594c9.809 0 17.763 6.596 17.763 16.406 0 9.81-7.954 16.403-17.763 16.403S15.239 42.81 15.239 33"/><path fill="#FFBC00" d="M33 16.594c9.809 0 17.763 6.596 17.763 16.406 0 9.81-7.954 16.403-17.763 16.403"/><path fill="#FFCE00" d="M50.763 33c0 9.81-7.954 16.403-17.763 16.403"/><g><path fill="#FF9D00" d="M34.328 9.439a1.327 1.327 0 1 1-2.655 0c0-.734.595-1.332 1.327-1.332a1.33 1.33 0 0 1 1.328 1.332z"/><path fill="#FFCE00" d="M34.581 5.08L33 5.586l-1.576-.506L33 2z"/><path fill="#FF9D00" d="M31.673 56.561c0-.736.595-1.328 1.327-1.328.736 0 1.328.592 1.328 1.328 0 .734-.592 1.326-1.328 1.326a1.326 1.326 0 0 1-1.327-1.326z"/><path fill="#FFCE00" d="M31.42 60.918l1.58-.507 1.579.509L33 64z"/><g><path fill="#FF9D00" d="M50.6 17.283a1.338 1.338 0 0 1-1.879 0 1.336 1.336 0 0 1 0-1.884 1.333 1.333 0 0 1 1.881-.002 1.337 1.337 0 0 1-.002 1.886z"/><path fill="#FFCE00" d="M53.859 14.375l-1.474-.758-.757-1.474 3.294-1.065z"/><g><circle cx="16.34" cy="49.66" r="1.33" fill="#FF9D00"/><path fill="#FFCE00" d="M12.142 51.623l1.477.756.755 1.48-3.294 1.061z"/></g></g><g><circle cx="56.561" cy="32.999" r="1.329" fill="#FF9D00"/><path fill="#FFCE00" d="M60.92 34.58L60.412 33l.508-1.578L64 33z"/><g><circle cx="9.44" cy="32.999" r="1.329" fill="#FF9D00"/><path fill="#FFCE00" d="M5.083 31.42L5.59 33l-.51 1.576L2 33z"/></g></g><g><path fill="#FF9D00" d="M48.721 50.601a1.33 1.33 0 1 1 1.879-1.88 1.33 1.33 0 0 1-1.879 1.88z"/><path fill="#FFCE00" d="M51.625 53.859l.76-1.474 1.474-.76 1.063 3.295z"/><g><path fill="#FF9D00" d="M17.28 15.399a1.33 1.33 0 0 1 0 1.884 1.339 1.339 0 0 1-1.88 0 1.331 1.331 0 0 1 1.88-1.884z"/><path fill="#FFCE00" d="M14.378 12.143l-.759 1.476-1.477.756-1.062-3.297z"/></g></g></g><g><path fill="#FFCE00" d="M43.438 11.834a1.33 1.33 0 1 1-.702-1.742c.674.287.989 1.065.702 1.742z"/><path fill="#FF9D00" d="M45.373 7.923l-1.65-.154-1.256-1.081 2.659-2.221z"/><circle cx="23.786" cy="54.684" r="1.329" fill="#FFCE00"/><path fill="#FF9D00" d="M20.629 58.073l1.652.155 1.252 1.084-2.656 2.219z"/><g><path fill="#FFCE00" d="M55.348 25.416a1.337 1.337 0 0 1-1.733-.736 1.331 1.331 0 0 1 2.469-.998 1.336 1.336 0 0 1-.736 1.734z"/><path fill="#FF9D00" d="M59.483 24.016l-1.061-1.278-.121-1.652 3.447.31z"/><g><path fill="#FFCE00" d="M10.652 40.584a1.333 1.333 0 0 1 1.732.734 1.33 1.33 0 1 1-1.732-.734z"/><path fill="#FF9D00" d="M6.521 41.982l1.061 1.274.119 1.656-3.449-.31z"/></g></g><g><path fill="#FFCE00" d="M54.164 43.436a1.328 1.328 0 1 1 1.042-2.443 1.328 1.328 0 0 1-1.042 2.443z"/><path fill="#FF9D00" d="M58.078 45.373l.152-1.65 1.083-1.258 2.22 2.658z"/><g><path fill="#FFCE00" d="M11.835 22.562a1.327 1.327 0 1 1-1.038 2.445 1.327 1.327 0 1 1 1.038-2.445z"/><path fill="#FF9D00" d="M7.924 20.627l-.153 1.654-1.083 1.252-2.219-2.658z"/></g></g><g><circle cx="41.818" cy="54.847" r="1.329" fill="#FFCE00"/><path fill="#FF9D00" d="M41.985 59.482l1.274-1.063 1.656-.121-.311 3.449z"/><g><path fill="#FFCE00" d="M25.414 10.652a1.328 1.328 0 1 1-2.462.998 1.324 1.324 0 0 1 .733-1.73 1.327 1.327 0 0 1 1.729.732z"/><path fill="#FF9D00" d="M24.018 6.52l-1.279 1.061-1.653.119.31-3.451z"/></g></g></g></svg>