<svg xmlns="http://www.w3.org/2000/svg" width="66" height="66"><path fill="#FF7F00" d="M22.628 1c-7 1.504-12.466 10.369-12.466 21.117 0 10.746 5.466 14.391 12.466 14.961V1z"/><path fill="#FF4800" d="M22.628 1c7 1.504 12.467 10.369 12.467 21.117 0 10.746-5.467 14.391-12.467 14.961V1z"/><g><path fill="#FFBC00" d="M22.628 13.76c-4 .967-8.055 6.699-8.055 13.646 0 6.949 4.055 9.305 8.055 9.672V13.76z"/><path fill="#FF7F00" d="M22.628 13.76c5 .967 8.054 6.699 8.054 13.646 0 6.949-3.054 9.305-8.054 9.672V13.76z"/></g><g><path fill="#AD4831" d="M55.119 60.809a2.457 2.457 0 0 1-.001 3.473 2.453 2.453 0 0 1-3.471 0L23.256 35.891a2.455 2.455 0 1 1 3.472-3.471l28.391 28.389z"/><path fill="#893210" d="M23.256 32.42a2.455 2.455 0 0 1 3.472 0L55.12 60.809a2.457 2.457 0 0 1-.001 3.473"/><path fill="#3D3D3D" d="M17.431 34.527c-2.328-2.33-2.44-5.992-.25-8.184 2.193-2.191 5.855-2.08 8.184.25 2.329 2.326 4.051 7.6 1.859 9.793-2.191 2.19-7.465.468-9.793-1.859z"/><path d="M27.224 36.387c-2.19 2.189-7.465.467-9.793-1.859-2.328-2.33-2.44-5.992-.25-8.184"/></g></svg>