<?xml version="1.0" standalone="no"?>
<!DOCTYPE svg PUBLIC "-//W3C//DTD SVG 20010904//EN"
 "http://www.w3.org/TR/2001/REC-SVG-20010904/DTD/svg10.dtd">
<svg version="1.0" xmlns="http://www.w3.org/2000/svg"
 width="896.000000pt" height="896.000000pt" viewBox="0 0 896.000000 896.000000"
 preserveAspectRatio="xMidYMid meet">
<metadata>
Created by potrace 1.11, written by Peter Selinger 2001-2013
</metadata>
<g transform="translate(0.000000,896.000000) scale(0.100000,-0.100000)"
fill="#000000" stroke="none">
<path d="M2787 8504 c-1 -1 -36 -4 -77 -8 -41 -3 -82 -7 -90 -9 -8 -2 -36 -7
-63 -12 -26 -4 -50 -11 -53 -16 -3 -5 -10 -7 -15 -4 -5 4 -15 3 -21 -2 -7 -4
-17 -8 -23 -10 -60 -13 -173 -68 -269 -130 -86 -56 -266 -233 -266 -263 0 -5
-3 -10 -7 -10 -23 0 -173 -309 -188 -385 -2 -11 -4 -20 -5 -20 -1 0 -3 -8 -6
-17 -2 -10 -6 -26 -8 -35 -3 -10 -5 -18 -6 -18 -1 0 -3 -7 -5 -15 -1 -8 -8
-42 -15 -75 -14 -64 -15 -66 -24 -135 -3 -25 -8 -56 -11 -69 -22 -116 -22
-627 1 -733 3 -13 7 -45 9 -73 2 -27 6 -61 8 -75 2 -14 8 -50 12 -80 4 -30 9
-64 12 -75 7 -31 16 -98 17 -123 1 -21 -11 -28 -104 -63 -58 -21 -114 -43
-125 -48 -11 -5 -36 -16 -55 -24 -124 -54 -227 -102 -310 -147 -52 -28 -107
-55 -122 -61 -16 -6 -28 -15 -28 -20 0 -5 -5 -9 -11 -9 -6 0 -34 -16 -63 -35
-29 -19 -58 -35 -65 -35 -6 0 -11 -4 -11 -8 0 -4 -13 -15 -29 -25 -81 -48
-248 -184 -351 -287 -138 -137 -142 -142 -250 -300 -60 -88 -136 -277 -156
-391 -10 -54 -10 -291 0 -339 13 -65 39 -165 47 -180 6 -13 16 -37 24 -60 21
-62 114 -233 154 -282 5 -7 45 -56 89 -108 70 -85 99 -116 206 -215 15 -13 59
-51 99 -82 40 -32 73 -61 75 -65 2 -5 8 -8 13 -8 6 0 33 -17 62 -38 46 -34
120 -81 230 -146 57 -34 300 -153 367 -181 36 -14 84 -35 107 -46 24 -10 49
-19 56 -19 7 0 18 -5 25 -12 7 -7 12 -9 12 -6 0 3 26 -5 58 -18 61 -25 65 -34
49 -109 -4 -16 -10 -48 -12 -70 -3 -22 -8 -53 -11 -70 -3 -16 -7 -48 -10 -70
-2 -22 -5 -49 -8 -61 -2 -11 -7 -56 -11 -100 -3 -43 -8 -99 -10 -124 -11 -125
-5 -476 10 -551 3 -13 7 -46 10 -72 9 -80 45 -235 81 -346 30 -92 133 -317
152 -331 4 -3 21 -25 37 -50 33 -49 209 -230 224 -230 5 0 17 -8 27 -17 23
-24 245 -134 255 -127 5 3 9 1 9 -3 0 -5 12 -10 28 -11 15 -1 29 -7 30 -12 2
-6 7 -8 11 -6 4 3 25 0 47 -5 65 -16 80 -19 131 -24 150 -16 363 -4 488 26 22
6 51 12 65 14 14 1 26 4 28 5 1 1 5 3 10 4 79 21 191 57 247 81 124 52 242
106 308 142 42 24 80 43 83 43 2 0 10 5 17 10 7 6 64 43 127 83 111 71 242
163 306 216 17 14 48 40 68 56 38 30 44 35 82 67 19 17 21 17 41 -1 11 -11 70
-58 129 -106 60 -47 116 -91 124 -98 60 -48 401 -267 416 -267 2 0 22 -11 44
-25 22 -14 40 -23 40 -19 0 3 13 -4 29 -15 15 -11 31 -18 35 -14 3 3 6 1 6 -6
0 -7 5 -9 10 -6 6 3 10 1 10 -4 0 -6 3 -10 8 -9 4 1 23 -5 42 -14 92 -42 131
-57 205 -81 93 -30 225 -65 275 -73 19 -3 46 -8 60 -11 39 -9 330 -9 385 0 27
5 54 12 61 17 6 6 14 7 17 4 3 -3 36 4 74 16 209 67 398 206 523 385 19 27 40
55 45 61 39 42 172 358 190 453 2 9 4 17 5 19 3 3 5 9 15 62 5 25 9 47 10 50
2 10 25 145 30 180 24 167 24 556 0 755 -3 22 -7 60 -9 85 -6 55 -14 110 -26
175 -6 28 -12 64 -14 80 -3 17 -8 46 -11 66 -8 40 -16 35 125 84 41 14 85 30
98 35 32 15 61 26 112 45 55 20 82 33 240 108 69 33 127 61 130 61 3 1 16 9
30 17 25 16 174 104 210 125 11 6 32 20 47 31 157 118 195 148 243 192 30 28
60 54 65 59 6 5 30 33 55 62 25 29 52 60 60 69 32 35 70 90 70 100 0 6 5 11
10 11 6 0 10 7 10 15 0 8 5 15 10 15 6 0 10 6 10 14 0 8 6 21 13 28 7 7 25 42
40 78 16 36 32 74 37 85 11 25 29 86 35 114 2 11 6 25 9 29 19 30 28 325 13
406 -20 105 -47 188 -92 281 -19 40 -35 78 -35 83 0 6 -3 12 -8 14 -4 2 -22
26 -40 54 -18 28 -40 61 -50 73 -9 11 -28 36 -42 53 -36 47 -207 217 -264 263
-27 22 -55 46 -62 53 -7 6 -17 12 -22 12 -5 0 -15 7 -22 15 -11 13 -160 116
-205 141 -11 6 -63 36 -115 66 -129 74 -326 169 -365 178 -5 1 -21 8 -35 15
-43 23 -119 55 -130 55 -6 0 -29 9 -53 19 -23 11 -62 26 -87 34 -48 16 -50 21
-35 92 24 122 34 186 40 250 3 28 7 59 10 70 7 32 19 175 19 237 1 32 3 58 6
58 6 0 3 288 -4 390 -5 63 -13 123 -32 245 -8 53 -36 162 -63 250 -33 110 -97
242 -171 355 -57 87 -214 260 -237 260 -7 0 -13 4 -13 9 0 11 -85 68 -160 107
-30 16 -57 31 -60 34 -3 3 -12 7 -20 9 -8 2 -40 12 -70 23 -30 10 -64 20 -77
22 -12 3 -27 7 -33 11 -18 11 -112 18 -250 19 -122 0 -174 -4 -250 -19 -14 -3
-38 -8 -55 -11 -16 -2 -48 -10 -70 -15 -22 -6 -41 -11 -42 -10 -2 0 -22 -7
-45 -15 -24 -9 -50 -17 -59 -19 -63 -13 -459 -199 -509 -238 -8 -7 -31 -21
-50 -32 -19 -10 -39 -22 -45 -27 -5 -4 -55 -38 -110 -75 -161 -108 -164 -110
-158 -117 4 -3 1 -6 -6 -6 -11 0 -71 -42 -107 -75 -6 -5 -28 -23 -49 -40 -21
-16 -54 -44 -74 -62 -20 -18 -41 -33 -47 -33 -5 0 -26 15 -46 33 -20 17 -45
39 -55 47 -10 8 -43 35 -73 59 -30 25 -61 51 -67 60 -7 8 -13 12 -13 8 0 -8
-22 8 -48 36 -9 9 -22 17 -28 17 -7 0 -14 4 -16 9 -4 12 -226 159 -328 218
-105 61 -252 132 -345 168 -38 14 -79 30 -90 35 -41 17 -189 59 -230 65 -42 6
-89 16 -95 20 -9 6 -267 24 -273 19z"/>
</g>
</svg>
