<svg xmlns="http://www.w3.org/2000/svg" width="66" height="66"><g fill="#7C9193"><path d="M29.605 52.426a.35.35 0 0 1-.492 0 .353.353 0 0 1 0-.492l5.895-5.895a.353.353 0 0 1 .492 0 .353.353 0 0 1 0 .492l-5.895 5.895zM47.633 52.426a.35.35 0 0 0 .492 0 .35.35 0 0 0 0-.492l-5.893-5.895a.35.35 0 0 0-.49 0 .35.35 0 0 0 0 .492l5.891 5.895z"/></g><path fill="#990037" d="M30.582 32.641c0 .881-.717 1.6-1.602 1.6H5.666a1.602 1.602 0 0 1 0-3.202H28.98c.885 0 1.602.719 1.602 1.602z"/><circle cx="39.42" cy="32.639" r="16.076" fill="#BC043D"/><path fill="#990037" d="M55.496 32.639c0 8.881-7.197 16.078-16.076 16.078S23.344 41.52 23.344 32.639"/><path fill="#359CBC" d="M39.881 16.586v16.139h15.611c0-.029.004-.057.004-.086 0-8.723-6.949-15.805-15.615-16.053z"/><path fill="#43B9DD" d="M55.492 32.725c0-.029.004-.057.004-.086 0-8.723-6.949-15.805-15.615-16.053"/><circle cx="8.357" cy="32.639" r="4.293" fill="#990037"/><path fill="#BC043D" d="M4.064 32.639a4.293 4.293 0 0 1 4.293-4.293"/><path fill="#7C9193" d="M38.621 57.352a15.3 15.3 0 0 1-10.893-4.51 1.009 1.009 0 0 1 0-1.428 1.008 1.008 0 0 1 1.429 0 13.299 13.299 0 0 0 9.464 3.92c3.574 0 6.935-1.393 9.465-3.92a1.004 1.004 0 0 1 1.426 0 1.007 1.007 0 0 1 0 1.428 15.296 15.296 0 0 1-10.891 4.51z"/><path fill="#94A9AA" d="M48.086 51.414a13.308 13.308 0 0 1-9.465 3.92 13.299 13.299 0 0 1-9.464-3.92 1.008 1.008 0 0 0-1.429 0c-.062.061-.098.135-.141.207.043.072.078.148.141.211a15.296 15.296 0 0 0 10.893 4.51c4.113 0 7.982-1.6 10.891-4.51.062-.062.099-.139.139-.211-.04-.072-.076-.146-.139-.207a1.004 1.004 0 0 0-1.426 0z"/><path fill="#7F0135" d="M40.514 46.023c-3.924 0-7.502-.07-10.26-.184a15.982 15.982 0 0 0 9.166 2.877c3.361 0 6.479-1.035 9.059-2.799a282.59 282.59 0 0 1-7.965.106zM42.451 16.311c0 .51-.414.926-.928.926h-4.039a.927.927 0 0 1 0-1.854h4.039c.514 0 .928.414.928.928z"/><path fill="#BC043D" d="M36.557 16.311c0-.514.416-.928.928-.928h4.039c.514 0 .928.414.928.928"/><ellipse cx="39.42" cy="11.258" fill="#77B7C6" rx="24.58" ry="2.609"/><path fill="#9BD3DD" d="M14.84 11.258c0-1.439 11.004-2.609 24.58-2.609 13.574 0 24.58 1.17 24.58 2.609"/><circle cx="8.357" cy="32.639" r="1.705" fill="#BC043D"/><circle cx="45.86" cy="24.516" r="2.062" fill="#157B93"/><path fill="#157B93" d="M49.014 32.725c-.045-3.504-1.439-6.316-3.154-6.316s-3.107 2.812-3.15 6.316h6.304z"/><g fill="#157B93"><path d="M5.234 26.709c.738.742 3.238 4.441 2.5 5.18-.74.74-4.439-1.762-5.18-2.498a1.895 1.895 0 1 1 2.68-2.682zM11.484 38.316c-.74-.74-3.242-4.439-2.5-5.178.738-.74 4.438 1.762 5.178 2.498a1.895 1.895 0 0 1-2.678 2.68z"/><g><path d="M14.162 29.389c-.74.738-4.439 3.24-5.178 2.5-.742-.738 1.76-4.438 2.5-5.18a1.895 1.895 0 0 1 2.678 2.68zM2.555 35.637c.74-.736 4.439-3.238 5.18-2.498.738.738-1.76 4.438-2.5 5.178s-1.939.74-2.68 0-.741-1.94 0-2.68z"/></g></g></svg>