<svg xmlns="http://www.w3.org/2000/svg" width="66" height="66"><path fill="#445066" d="M45.336 21.152a1.59 1.59 0 1 1-2.248 2.249l-.488-.488a1.59 1.59 0 0 1 2.248-2.249l.488.488z"/><path fill="#3E5260" d="M63.449 48.065c1.922 1.921 2.079 4.88.35 6.608L54.674 63.8c-1.729 1.729-4.688 1.571-6.607-.35L2.551 17.934c-1.922-1.922-2.079-4.881-.352-6.607L11.326 2.2c1.727-1.729 4.686-1.57 6.607.352l45.516 45.513z"/><path fill="#324554" d="M2.199 11.326l9.127-9.127c1.727-1.729 4.686-1.57 6.607.352l45.516 45.515c1.922 1.921 2.079 4.88.35 6.608L54.674 63.8"/><path fill="#142133" d="M3.52 14.178a.275.275 0 0 1-.39 0l-.783-.782a.277.277 0 0 1 0-.391.275.275 0 0 1 .39 0l.783.782a.276.276 0 0 1 0 .391zM15.08 25.738a.28.28 0 0 1-.392 0l-1.445-1.445a.278.278 0 0 1 0-.392.281.281 0 0 1 .392 0l1.445 1.445a.278.278 0 0 1 0 .392zm-2.89-2.889a.278.278 0 0 1-.392 0l-1.445-1.446a.276.276 0 1 1 .391-.391l1.446 1.445a.28.28 0 0 1 0 .392zm-2.891-2.89a.278.278 0 0 1-.39 0l-1.445-1.446a.276.276 0 0 1 .39-.391l1.445 1.445a.276.276 0 0 1 0 .392zM6.41 17.068a.276.276 0 0 1-.391 0l-1.445-1.445a.277.277 0 0 1 0-.391.278.278 0 0 1 .391 0l1.445 1.445a.276.276 0 0 1 0 .391zM17.307 27.965a.28.28 0 0 1-.392 0l-.782-.782a.281.281 0 0 1 0-.392.28.28 0 0 1 .392 0l.782.782a.28.28 0 0 1 0 .392zM14.178 3.521a.277.277 0 0 1-.391 0l-.783-.783c-.107-.107-.107-.283 0-.391s.283-.107.391 0l.783.783a.278.278 0 0 1 0 .391zM25.738 15.082a.283.283 0 0 1-.392 0l-1.444-1.446a.278.278 0 0 1 0-.392.278.278 0 0 1 .391 0l1.445 1.445a.28.28 0 0 1 0 .393zm-2.89-2.892a.28.28 0 0 1-.392 0l-1.445-1.446a.276.276 0 1 1 .392-.391l1.445 1.445a.28.28 0 0 1 0 .392zm-2.889-2.889a.278.278 0 0 1-.391 0l-1.446-1.445a.276.276 0 1 1 .391-.391l1.446 1.445a.28.28 0 0 1 0 .391zM17.068 6.41a.278.278 0 0 1-.392 0l-1.445-1.445c-.107-.106-.107-.283 0-.391s.284-.107.391 0l1.446 1.445a.276.276 0 0 1 0 .391zM27.964 17.307a.28.28 0 0 1-.392 0l-.782-.782a.281.281 0 0 1 0-.392.281.281 0 0 1 .392 0l.782.783a.28.28 0 0 1 0 .391zM39.21 49.867a.28.28 0 0 1-.392 0l-.782-.782a.28.28 0 0 1-.001-.392.28.28 0 0 1 .393 0l.782.782a.281.281 0 0 1 0 .392zM50.768 61.427a.276.276 0 0 1-.39 0l-1.446-1.445a.278.278 0 0 1 0-.391.28.28 0 0 1 .392 0l1.444 1.445a.275.275 0 0 1 0 .391zm-2.889-2.89a.276.276 0 0 1-.391 0l-1.445-1.445a.276.276 0 1 1 .391-.391l1.445 1.445a.278.278 0 0 1 0 .391zm-2.89-2.89a.279.279 0 0 1-.392 0l-1.445-1.445a.28.28 0 0 1 0-.392.281.281 0 0 1 .392 0l1.445 1.446a.275.275 0 0 1 0 .391zM42.1 52.758a.28.28 0 0 1-.392 0l-1.445-1.445a.28.28 0 0 1 0-.392.28.28 0 0 1 .392 0l1.445 1.445a.281.281 0 0 1 0 .392zM52.995 63.653a.278.278 0 0 1-.392 0l-.781-.782a.276.276 0 1 1 .391-.391l.782.782a.276.276 0 0 1 0 .391zM49.867 39.21a.28.28 0 0 1-.392 0l-.782-.782a.28.28 0 0 1 0-.393.28.28 0 0 1 .392.001l.782.782a.279.279 0 0 1 0 .392zM61.427 50.77a.278.278 0 0 1-.391 0l-1.445-1.445a.276.276 0 1 1 .391-.391l1.445 1.445a.28.28 0 0 1 0 .391zm-2.891-2.891a.276.276 0 0 1-.391 0L56.7 46.434c-.107-.107-.107-.283 0-.391s.284-.107.391 0l1.445 1.445a.275.275 0 0 1 0 .391zm-2.889-2.889a.278.278 0 0 1-.391 0l-1.446-1.445c-.107-.108-.107-.284 0-.392s.283-.107.391 0l1.446 1.446a.278.278 0 0 1 0 .391zm-2.89-2.89a.28.28 0 0 1-.392 0l-1.445-1.445a.281.281 0 0 1 0-.392.281.281 0 0 1 .392 0l1.445 1.446a.278.278 0 0 1 0 .391zM63.652 52.995a.276.276 0 0 1-.391 0l-.782-.782a.278.278 0 0 1 0-.391.277.277 0 0 1 .39 0l.783.782a.275.275 0 0 1 0 .391z"/><path fill="#324554" d="M44.048 21.951c6.104 6.102 6.104 15.996.002 22.098-6.104 6.104-15.999 6.104-22.101 0-6.101-6.102-6.101-15.996 0-22.098 6.102-6.101 15.997-6.101 22.099 0z"/><path fill="#142133" d="M21.949 21.951c6.102-6.102 15.997-6.102 22.099 0 6.104 6.102 6.104 15.996.002 22.098"/><circle cx="33" cy="33" r="12.262" fill="#142133"/><path fill="#1B3049" d="M24.329 24.33c4.788-4.787 12.553-4.787 17.341 0 4.788 4.788 4.788 12.553 0 17.341"/><path fill="#324554" d="M45.729 22.325a2.627 2.627 0 0 0 3.715 0 2.628 2.628 0 0 0 0-3.715l-2.054-2.054a2.628 2.628 0 0 0-3.715 3.716l2.054 2.053z"/><path fill="#142133" d="M43.675 16.557a2.628 2.628 0 0 0 0 3.716l2.054 2.053a2.627 2.627 0 0 0 3.715 0"/><g fill="#6B7D96"><path d="M27.54 27.279a.187.187 0 0 1 0 .262.188.188 0 0 1-.262 0l-1.759-1.76a.186.186 0 0 1 0-.262.186.186 0 0 1 .262.001l1.759 1.759zM40.48 40.22c.07.071.07.188 0 .26a.186.186 0 0 1-.262.002l-1.759-1.76a.184.184 0 0 1 0-.262.186.186 0 0 1 .262.001l1.759 1.759zM33.184 25.096a.185.185 0 0 1-.186.185.186.186 0 0 1-.184-.185v-2.489a.187.187 0 0 1 .186-.185c.1.001.184.083.184.186v2.488zM33.184 43.395a.185.185 0 1 1-.37 0l.001-2.488a.183.183 0 0 1 .185-.185c.1 0 .184.082.184.185v2.488z"/><g><path d="M38.721 27.541a.187.187 0 0 1-.263 0 .188.188 0 0 1 0-.262l1.761-1.759a.187.187 0 0 1 .262-.001c.07.072.07.19-.002.263l-1.758 1.759zM25.779 40.481a.185.185 0 0 1-.262-.262l1.761-1.759a.184.184 0 0 1 .261 0 .186.186 0 0 1 0 .262l-1.76 1.759z"/></g><g><path d="M40.905 33.185a.184.184 0 0 1-.187-.185c0-.101.084-.183.184-.185l2.49.001c.103 0 .185.083.186.184a.187.187 0 0 1-.187.186l-2.486-.001zM22.605 33.184a.18.18 0 0 1-.184-.184.186.186 0 0 1 .184-.186l2.487.002a.185.185 0 0 1 .186.185.187.187 0 0 1-.186.185l-2.487-.002z"/></g></g><g fill="#142133"><path d="M12.774 10.332c.438.437.438 1.144.003 1.58l-.864.863a1.117 1.117 0 0 1-1.582 0l-.862-.861a1.118 1.118 0 0 1 0-1.582l.864-.864a1.116 1.116 0 0 1 1.58.002l.861.862zM18.25 15.807c.438.437.439 1.145.002 1.582l-.862.862a1.12 1.12 0 0 1-1.584.001l-.86-.862a1.118 1.118 0 0 1 0-1.583l.862-.863a1.12 1.12 0 0 1 1.582.001l.86.862z"/><g><path d="M51.055 48.611c.438.437.439 1.145.002 1.582l-.862.861a1.12 1.12 0 0 1-1.583.002l-.862-.862a1.118 1.118 0 0 1 0-1.583l.863-.863a1.117 1.117 0 0 1 1.582.002l.86.861zM56.531 54.087c.436.438.438 1.145.001 1.581l-.863.863a1.118 1.118 0 0 1-1.583 0l-.861-.861a1.117 1.117 0 0 1 .001-1.583l.862-.862a1.115 1.115 0 0 1 1.581.001l.862.861z"/></g></g><g><path fill="#ED660A" d="M32.998 30.45l8.401 2.551-8.401 2.55-8.398-2.55z"/><path fill="#EA2B0C" d="M24.6 33.001l8.398-2.551 8.401 2.551"/></g></svg>