<svg xmlns="http://www.w3.org/2000/svg" width="66" height="66"><path fill="#5B402E" d="M2 31v20.854C2 59.572 8.507 59 16.228 59h33.545C57.493 59 64 59.572 64 51.854V31H2z"/><path fill="#493322" d="M16 59h33.772C57.493 59 64 59.572 64 51.854V31"/><path fill="#5B402E" d="M64 26v-4.963C64 13.316 57.493 7 49.772 7H16.228C8.507 7 2 13.316 2 21.037V26h62z"/><path fill="#493322" d="M2 21v5h62v-4.963C64 13.316 57.493 7.04 49.772 7.04"/><path fill="#F2B111" d="M2 31h62v8H2z"/><path fill="#E88813" d="M2 39h62v-8"/><path fill="#F2B111" d="M2 21h62v5H2z"/><path fill="#E88813" d="M2 26h62v-5"/><g fill="#E88813"><path d="M15 6h7v19h-7zM44 6h7v19h-7z"/></g><g fill="#E88813"><path d="M15 38h7v22h-7zM44 38h7v22h-7z"/></g><g fill="#493322"><circle cx="25.029" cy="35.121" r="1.134"/><circle cx="30.322" cy="35.121" r="1.134"/><g><circle cx="35.678" cy="35.121" r="1.135"/><circle cx="40.971" cy="35.121" r="1.135"/></g><g><circle cx="6.157" cy="35.121" r="1.134"/><circle cx="11.45" cy="35.121" r="1.134"/><g><circle cx="54.55" cy="35.121" r="1.134"/><circle cx="59.843" cy="35.121" r="1.134"/></g></g></g><path fill="#F2B111" d="M36.487 45.309a3.487 3.487 0 0 0-6.974 0c0 1.258.667 2.542 1.665 3.155L30.186 55h5.629l-.993-6.536c.998-.613 1.665-1.898 1.665-3.155z"/><path fill="#E88813" d="M35.814 55l-.993-6.536c.999-.613 1.666-1.897 1.666-3.155a3.487 3.487 0 0 0-6.974 0"/></svg>