<svg xmlns="http://www.w3.org/2000/svg" width="66" height="66"><path fill="#0097F4" d="M56.855 25H45v-6.963C45 16.936 44.499 16 43.398 16H3.995C2.893 16 2 16.936 2 18.037v29.677C2 48.815 2.893 50 3.995 50h12.066l1.899 3.548C18.54 55.119 20.75 55 21.731 55h35.123c.984 0 2.146-.436 2.146-1.417V27.13c0-.983-1.162-2.13-2.145-2.13z"/><path fill="#0379DB" d="M21 55.002l.732-.002H43V16H21v39.002z"/><path fill="#717F7E" d="M55 9.873A2.126 2.126 0 0 1 52.875 12h-16.75A2.126 2.126 0 0 1 34 9.873V4.127C34 2.952 34.951 2 36.125 2h16.75C54.049 2 55 2.952 55 4.127v5.746z"/><path fill="#616B6A" d="M36 2h16.969C54.144 2 55 3.03 55 4.204v5.981C55 11.36 54.144 12 52.969 12H36"/><path fill="#353F3E" d="M61 55.971C61 58.908 58.827 61 55.893 61h-22.33C30.627 61 28 58.908 28 55.971V17.16c0-2.937 2.627-5.16 5.563-5.16h22.329C58.827 12 61 14.224 61 17.16v38.811z"/><path fill="#1E2121" d="M28 17.16c0-2.937 2.627-5.16 5.563-5.16h22.329C58.827 12 61 14.224 61 17.16v38.811c0 2.938-2.277 5.356-5.211 5.356"/><path fill="#869392" d="M64 14.873A2.127 2.127 0 0 1 61.872 17H27.128A2.127 2.127 0 0 1 25 14.873V9.127C25 7.952 25.953 7 27.128 7h34.744C63.047 7 64 7.952 64 9.127v5.746z"/><path fill="#717F7E" d="M64 14.789C64 15.964 63.047 17 61.872 17H27.128A2.126 2.126 0 0 1 25 14.873"/><path fill="#869392" d="M64 61.873A2.128 2.128 0 0 1 61.872 64H27.128A2.128 2.128 0 0 1 25 61.873v-5.746c0-1.174.953-2.127 2.128-2.127h34.744c1.175 0 2.128.953 2.128 2.127v5.746z"/><path fill="#717F7E" d="M25 56.127c0-1.174.952-2.127 2.128-2.127h34.744c1.175 0 2.128.953 2.128 2.127v5.667c0 1.175-.953 2.04-2.128 2.04"/><path fill="#717F7E" d="M64 61.833C64 63.008 63.047 64 61.872 64H27.128A2.127 2.127 0 0 1 25 61.873"/><path fill="#0379DB" d="M11 32.43A1.57 1.57 0 0 1 9.43 34H7.57A1.57 1.57 0 0 1 6 32.43v-8.86c0-.867.703-1.57 1.57-1.57h1.86c.867 0 1.57.703 1.57 1.57v8.86zM19 32.43A1.57 1.57 0 0 1 17.43 34h-1.86A1.57 1.57 0 0 1 14 32.43v-8.86c0-.867.703-1.57 1.57-1.57h1.859c.867 0 1.57.703 1.57 1.57v8.86z"/><path fill="#FFF" d="M11 31.429A1.57 1.57 0 0 1 9.43 33H7.57A1.57 1.57 0 0 1 6 31.429v-8.857A1.57 1.57 0 0 1 7.57 21h1.86c.867 0 1.57.703 1.57 1.571v8.858z"/><g><path fill="#FFF" d="M19 31.705c0 .868-.903 1.295-1.77 1.295h-1.615C14.749 33 14 32.573 14 31.705v-9.132c0-.866.898-1.573 1.765-1.573h1.466c.866 0 1.77.707 1.77 1.573v9.132z"/></g><g><path fill="#0097F4" d="M27 32.43A1.57 1.57 0 0 1 25.43 34h-1.86A1.57 1.57 0 0 1 22 32.43v-8.86c0-.867.703-1.57 1.57-1.57h1.859c.867 0 1.57.703 1.57 1.57v8.86z"/><path fill="#FFF" d="M27 31.429A1.57 1.57 0 0 1 25.43 33h-1.86A1.57 1.57 0 0 1 22 31.429v-8.857A1.57 1.57 0 0 1 23.57 21h1.859c.867 0 1.57.703 1.57 1.571v8.858z"/></g><circle cx="5.322" cy="46.799" r=".642" fill="#0379DB"/><circle cx="8.316" cy="46.799" r=".643" fill="#0379DB"/><circle cx="11.309" cy="46.799" r=".643" fill="#0379DB"/><circle cx="14.302" cy="46.799" r=".643" fill="#0379DB"/><circle cx="17.294" cy="46.799" r=".643" fill="#0379DB"/><circle cx="20.287" cy="46.799" r=".643" fill="#0379DB"/></svg>