<svg xmlns="http://www.w3.org/2000/svg" width="66" height="66"><path fill="#B52815" d="M33.002 13.989c-3-5.156-8.279-8.502-14.451-8.502-9.006 0-16.301 7.074-16.301 15.768 0 3.162.951 6.215 2.791 8.824l.021.041c.061.062.086.096.141.162l27.799 30.23V13.989z"/><path fill="#8C160A" d="M33.002 13.989c3-5.156 8.283-8.502 14.449-8.502 8.998 0 16.299 7.074 16.299 15.768 0 3.162-.938 6.215-2.783 8.824l-.016.041a1.292 1.292 0 0 0-.154.162l-27.795 30.23V13.989z"/><path fill="#D8462A" d="M20.109 7.675c1.012 1.576-1.426 4.947-5.447 7.529-4.023 2.582-8.1 3.389-9.117 1.818-1.008-1.582.238-4.92 4.258-7.498 4.019-2.58 9.297-3.427 10.306-1.849z"/><path fill="#B52815" d="M49.609 7.675c1.012 1.576-1.426 4.947-5.447 7.529-4.023 2.582-8.1 3.389-9.117 1.818-1.008-1.582.238-4.92 4.258-7.498 4.019-2.58 9.297-3.427 10.306-1.849z"/><path fill="#D8462A" d="M8.48 21.962a2.038 2.038 0 0 1-4.074 0 2.037 2.037 0 0 1 4.074 0z"/><g><path fill="#1DD8A7" d="M24.551 56c-.504 0-.93-.529-.992-1.029l-3.039-24.2-1.729 12.841a.983.983 0 0 1-.955.848.981.981 0 0 1-1.014-.805l-2.043-9.808-1.422 1.843c-.189.256-.488.31-.806.31h-8.25a1 1 0 1 1 0-2h7.742l2.451-3.246c.232-.318.631-.421 1.018-.339.387.084.688.411.768.798l1.307 6.287 1.973-14.668c.065-.498.489-.832.991-.832h.004c.502 0 .926.348.988.846l2.754 21.855.756-9.924c.041-.521.474-.777.998-.777h35.418a1 1 0 0 1 0 2h-34.49l-1.432 19.075a.988.988 0 0 1-.971.925h-.025z"/></g></svg>