<svg xmlns="http://www.w3.org/2000/svg" width="66" height="66"><path fill="#EAE9DA" d="M61 52.354C61 59.338 55.16 64 48.176 64H18c-6.984 0-13-5.552-13-11.646V27.646C5 20.662 10.662 15 17.646 15h30.707C55.338 15 61 20.662 61 27.646v24.708z"/><path fill="#CCCAB6" d="M18 15h30.176C55.161 15 61 20.166 61 27.15v24.66C61 58.795 55.161 64 48.176 64"/><path fill="#EA8B18" d="M5 30v21.811C5 58.795 10.839 64 17.824 64h30.352C55.161 64 61 58.795 61 51.811V30H5z"/><path fill="#D3750D" d="M18 64h30.176C55.161 64 61 58.795 61 51.811V30.312l-43.315-.203"/><path fill="#F7CA4D" d="M12 49.059a1.501 1.501 0 0 1-3 0V32.906c0-.82.68-1.488 1.502-1.488.82 0 1.498.668 1.498 1.488v16.153z"/><path fill="#FFF" d="M12 27.244a1.501 1.501 0 0 1-3 0v-4.771c0-.82.68-1.488 1.502-1.488.82 0 1.498.668 1.498 1.488v4.771z"/><path fill="#F7CA4D" d="M12 54.855c0 .82-.678 1.486-1.498 1.486A1.498 1.498 0 0 1 9 54.855v-.977a1.5 1.5 0 0 1 1.502-1.488c.82 0 1.498.666 1.498 1.488v.977z"/><path fill="#239B02" d="M55.764 8.5c0 3.318-2.69 6.5-6.007 6.5H16.243c-3.316 0-6.007-3.182-6.007-6.5 0-3.316 2.69-6.5 6.007-6.5h33.514c3.316 0 6.007 3.184 6.007 6.5z"/><path fill="#1A6000" d="M55.764 8.744c0 3.318-2.69 6.256-6.007 6.256H16.243c-3.316 0-6.007-2.813-6.007-6.132"/><path fill="#CCCAB6" d="M56.606 3.51c0-.961-.779-1.51-1.739-1.51H11.134c-.962 0-1.739.549-1.739 1.51 0 .578.284.974.72 1.29.292 1.686 1.752 2.911 3.521 2.911 1.122 0 2.109-.556 2.767-1.362a3.544 3.544 0 0 0 2.766 1.319c1.122 0 2.109-.533 2.768-1.34a3.556 3.556 0 0 0 2.767 1.33c1.121 0 2.109-.529 2.766-1.336.657.807 1.646 1.333 2.767 1.333s2.109-.528 2.766-1.335c.658.807 1.646 1.334 2.768 1.334s2.109-.527 2.767-1.334a3.56 3.56 0 0 0 2.767 1.334c1.121 0 2.108-.527 2.766-1.334a3.559 3.559 0 0 0 2.766 1.334c1.122 0 2.109-.527 2.768-1.334a3.561 3.561 0 0 0 2.767 1.334c1.769 0 3.229-1.169 3.521-2.854.427-.317.713-.712.713-1.29z"/><path fill="#BAB699" d="M54.867 2H33v4.424c0-.037.021-.064.052-.104.658.807 1.62 1.334 2.741 1.334s2.096-.527 2.754-1.334c.656.807 1.638 1.334 2.76 1.334 1.121 0 2.104-.527 2.762-1.334a3.557 3.557 0 0 0 2.765 1.334c1.122 0 2.108-.527 2.767-1.334a3.559 3.559 0 0 0 2.766 1.334 3.574 3.574 0 0 0 3.521-2.969c.434-.316.72-.598.72-1.176C56.606 2.549 55.827 2 54.867 2z"/><path fill="#C65E00" d="M5 30h56v1H5z"/><path fill="#F9CA06" d="M49 49.004l-16.001 9.527L17 49.004V29.957l15.999-9.525L49 29.957z"/><path fill="#D3AB05" d="M32.999 20.432L49 29.957v19.047l-16.001 9.527"/><path fill="#34B515" d="M46 46.896l-13.001 7.418L20 46.896V32.064l12.999-7.419L46 32.064z"/><path fill="#239B02" d="M20 32.064l13.075-7.419L46 32.064v14.832l-13.001 7.418"/><path fill="#F9CA06" d="M30 43v1.414l.198.586h5.603l.199-.586V43zM36 39v-1.555l-3-1.455-3 1.455V39z"/><path fill="#D3AB05" d="M30 40h6v2h-6zM31.46 46l1.539 1.418L34.54 46z"/><g><g fill="#F9CA06"><path d="M29 37.016v3.613l-6.225-.451-1.711-4.971 3.335-1.533zM29 44.084v-2.586l-4.453.324-1.224 3.557 2.386 1.1z"/></g><g fill="#D3AB05"><path d="M37 37.016v3.613l6.225-.451 1.711-4.971-3.336-1.533zM37 44.084v-2.586l4.453.324 1.226 3.557-2.388 1.1z"/></g></g></svg>